<?xml version="1.0" encoding="utf-8"?>
<!-- Generator: Adobe Illustrator 19.2.1, SVG Export Plug-In . SVG Version: 6.00 Build 0)  -->
<svg version="1.1" id="Layer_1" xmlns="http://www.w3.org/2000/svg" xmlns:xlink="http://www.w3.org/1999/xlink" x="0px" y="0px"
	 viewBox="0 0 107.5 278" style="enable-background:new 0 0 107.5 278;" xml:space="preserve">
<style type="text/css">
	.st0{fill:none;stroke:#000000;stroke-width:8;stroke-miterlimit:10;}
	.st1{fill:none;stroke:#000000;stroke-width:8;stroke-miterlimit:10;stroke-dasharray:4.9273,4.9273;}
	.st2{fill:none;stroke:#000000;stroke-width:8;stroke-miterlimit:10;stroke-dasharray:5.0895,5.0895;}
	.st3{fill:none;stroke:#000000;stroke-width:8;stroke-miterlimit:10;stroke-dasharray:4.9252,4.9252;}
	.st4{fill:none;stroke:#000000;stroke-width:8;stroke-miterlimit:10;stroke-dasharray:5;}
</style>
<path class="st0" d="M54.4,204.4c-38.1,35.3-38.2,67.1-38.2,67.1"/>
<path class="st0" d="M54.4,75.5c22.4,20.8,45.2,49.6,34.3,81.6c-3,8.8-8.4,17.2-13.9,24.7c-6,8.2-12.9,15.6-20.3,22.5"/>
<path class="st0" d="M16.3,8.4c0,0,0.1,31.8,38.2,67.1"/>
<g>
	<g>
		<path class="st0" d="M54.7,204.4c0.6,0.6,1.2,1.1,1.8,1.7"/>
		<path class="st1" d="M60,209.5c24.7,24.9,30.8,47.4,32.3,57"/>
		<path class="st0" d="M92.6,269c0.2,1.6,0.2,2.5,0.2,2.5"/>
	</g>
</g>
<g>
	<g>
		<path class="st0" d="M54.7,75.5c-0.6,0.6-1.2,1.1-1.8,1.7"/>
		<path class="st2" d="M49.2,80.8C29,101,9.7,129.2,20.8,157.9c3.3,8.4,8.1,16.4,13.4,23.7c5,6.9,10.7,13.3,16.8,19.3"/>
		<path class="st0" d="M52.8,202.6c0.6,0.6,1.2,1.1,1.8,1.7"/>
	</g>
</g>
<g>
	<g>
		<path class="st0" d="M92.7,8.4c0,0,0,0.9-0.2,2.5"/>
		<path class="st3" d="M91.8,15.8c-2.2,10.9-9.4,32.6-33.5,56.3"/>
		<path class="st0" d="M56.5,73.8c-0.6,0.6-1.2,1.1-1.8,1.7"/>
	</g>
</g>
<g id="lines">
	<line class="st0" x1="55.1" y1="107.5" x2="81.5" y2="107.5"/>
	<line class="st4" x1="35.3" y1="107.5" x2="55.1" y2="107.5"/>
	<line class="st4" x1="55.1" y1="44.5" x2="70.5" y2="44.5"/>
	<line class="st0" x1="27.5" y1="44.5" x2="55.1" y2="44.5"/>
	<line class="st0" x1="55.1" y1="172.4" x2="81.2" y2="172.4"/>
	<line class="st4" x1="35.3" y1="172.4" x2="55.1" y2="172.4"/>
	<line class="st0" x1="54.6" y1="139.9" x2="91.5" y2="139.9"/>
	<line class="st4" x1="26.5" y1="139.9" x2="54.6" y2="139.9"/>
	<line class="st4" x1="55.1" y1="262" x2="80" y2="262"/>
	<line class="st0" x1="16.9" y1="262" x2="55.1" y2="262"/>
	<line class="st4" x1="55.1" y1="237.2" x2="73" y2="237.2"/>
	<line class="st0" x1="27" y1="237.2" x2="55.1" y2="237.2"/>
	<line class="st4" x1="55.1" y1="23.5" x2="81.5" y2="23.5"/>
	<line class="st0" x1="18.2" y1="23.5" x2="55.1" y2="23.5"/>
</g>
</svg>
